<?xml version="1.0" encoding="UTF-8"?>
<svg id="a" data-name="图层 1" xmlns="http://www.w3.org/2000/svg" xmlns:xlink="http://www.w3.org/1999/xlink" viewBox="0 0 71.42 60.61">
  <defs>
    <style>
      .f {
        fill: url(#c);
      }

      .f, .g, .h, .i, .j, .k, .l, .m, .n, .o, .p, .q, .r, .s, .t, .u, .v, .w, .x, .y, .z, .aa, .ab, .ac, .ad, .ae, .af, .ag, .ah, .ai, .aj, .ak, .al, .am, .an, .ao, .ap {
        stroke-width: 0px;
      }

      .g {
        fill: #8e140b;
      }

      .h {
        fill: #d40f14;
      }

      .i {
        fill: #96130a;
      }

      .j {
        fill: #8a1308;
      }

      .k {
        fill: #cf0f13;
      }

      .l {
        fill: url(#e);
      }

      .m {
        fill: #670e00;
      }

      .n {
        fill: #ac1410;
      }

      .o {
        fill: #791102;
      }

      .aq {
        clip-path: url(#d);
      }

      .p {
        fill: #8c1208;
      }

      .q {
        fill: none;
      }

      .ar {
        clip-path: url(#b);
      }

      .r {
        fill: #cb0f13;
      }

      .s {
        fill: #ba1110;
      }

      .t {
        fill: #b61615;
      }

      .u {
        fill: #540a00;
      }

      .v {
        fill: #8a1207;
      }

      .w {
        fill: #fff;
      }

      .x {
        fill: #96140d;
      }

      .y {
        fill: #5e0c00;
      }

      .z {
        fill: #a4130e;
      }

      .aa {
        fill: #70150b;
      }

      .ab {
        fill: #706f6f;
      }

      .ac {
        fill: #4f0b00;
      }

      .ad {
        fill: #610f00;
      }

      .ae {
        fill: #c31011;
      }

      .af {
        fill: #7d1206;
      }

      .ag {
        fill: #4b0800;
      }

      .ah {
        fill: #b81412;
      }

      .ai {
        fill: #9e140e;
      }

      .aj {
        fill: #a61612;
      }

      .ak {
        fill: #aa1714;
      }

      .al {
        fill: #91130a;
      }

      .am {
        fill: #7f1810;
      }

      .an {
        fill: #b2110e;
      }

      .ao {
        fill: #821205;
      }

      .ap {
        fill: #711000;
      }
    </style>
    <clipPath id="b">
      <polygon class="q" points="46.54 .76 46.54 4.08 4.86 4.08 .76 8.18 .76 59.85 63.23 59.85 67.05 56.04 67.05 24.92 70.66 24.92 70.66 .76 46.54 .76"/>
    </clipPath>
    <linearGradient id="c" x1="-345.61" y1="280.86" x2="-344.61" y2="280.86" gradientTransform="translate(-17546.6 21632.9) rotate(90) scale(62.6 -62.6)" gradientUnits="userSpaceOnUse">
      <stop offset="0" stop-color="#1d1d1b"/>
      <stop offset=".25" stop-color="#1e1e1c"/>
      <stop offset=".34" stop-color="#252523"/>
      <stop offset=".4" stop-color="#31312f"/>
      <stop offset=".46" stop-color="#414140"/>
      <stop offset=".5" stop-color="#575756"/>
      <stop offset=".53" stop-color="#4e4e4c"/>
      <stop offset=".62" stop-color="#383836"/>
      <stop offset=".72" stop-color="#282827"/>
      <stop offset=".84" stop-color="#1f1f1d"/>
      <stop offset="1" stop-color="#1d1d1b"/>
    </linearGradient>
    <clipPath id="d">
      <path class="q" d="M5.3,54.21v-26.16l2.66-2.67h54.01c.3,0,.54.24.54.54v26.17l-2.65,2.65H5.85c-.3,0-.54-.25-.54-.54M7.71,24.79l-3,3.01v26.41c0,.63.51,1.13,1.13,1.13h54.26l3-3v-26.42c0-.63-.51-1.13-1.13-1.13H7.71Z"/>
    </clipPath>
    <linearGradient id="e" x1="-355.74" y1="265.63" x2="-354.74" y2="265.63" gradientTransform="translate(8148.39 -10812.1) rotate(-90) scale(30.55 -30.55)" gradientUnits="userSpaceOnUse">
      <stop offset="0" stop-color="#575756"/>
      <stop offset=".29" stop-color="#4a4a49"/>
      <stop offset=".81" stop-color="#2a2a28"/>
      <stop offset="1" stop-color="#1d1d1b"/>
    </linearGradient>
  </defs>
  <polygon class="ab" points="0 60.61 0 7.87 4.54 3.32 42.93 3.32 46.23 0 71.42 0 71.41 25.23 67.81 28.83 67.81 56.35 63.55 60.61 0 60.61"/>
  <rect class="ab" x="53.23" y="-1.99" width="6.3" height="34.12" transform="translate(5.83 44.24) rotate(-44.95)"/>
  <g class="ar">
    <rect class="f" x=".76" y=".76" width="69.9" height="59.09"/>
  </g>
  <polygon class="aa" points="22.78 25.94 21.05 27.67 21.07 27.69 22.81 25.96 35.66 38.82 35.67 38.82 22.78 25.94"/>
  <rect class="aa" x="37.19" y="40.31" width="0" height=".07" transform="translate(-17.64 38.11) rotate(-45)"/>
  <rect class="aa" x="36.04" y="24.62" width="0" height="3.33" transform="translate(-8.03 33.18) rotate(-45)"/>
  <polygon class="aa" points="19.58 29.15 11.37 37.35 11.37 43.61 11.44 43.67 11.44 50.12 11.37 50.18 11.37 50.18 11.44 50.12 11.43 55.03 13.28 55.03 29.37 38.94 19.58 29.15"/>
  <polygon class="aa" points="32.26 55.03 37.17 55.03 37.16 50.12 32.26 55.03"/>
  <polygon class="ag" points="37.15 46.72 32.46 42.03 24.37 50.12 24.37 55.03 32.26 55.03 37.16 50.12 37.15 46.72"/>
  <rect class="ag" x="36.41" y="38.51" width="0" height="2.12" transform="translate(-17.31 37.34) rotate(-45)"/>
  <g>
    <path class="o" d="M11.44,50.12v-6.45l-.06-.06-3.12-3.13-3.23,3.23v10.5c0,.45.37.82.82.82h.68l4.84-4.85.06-.06Z"/>
    <polygon class="v" points="19.58 29.15 18.66 28.23 20.14 26.76 21.05 27.67 22.78 25.94 21.96 25.11 20.43 25.11 5.03 40.51 5.03 43.69 11.37 37.35 19.58 29.15"/>
    <polygon class="ah" points="20.43 25.11 17.21 25.11 5.03 37.29 5.03 40.51 20.43 25.11"/>
    <polygon class="r" points="17.21 25.11 14.01 25.11 5.03 34.09 5.03 37.29 17.21 25.11"/>
    <polygon class="k" points="14.01 25.11 10.79 25.11 5.03 30.87 5.03 34.09 14.01 25.11"/>
    <polygon class="h" points="7.84 25.11 5.03 27.94 5.03 30.87 10.79 25.11 7.84 25.11"/>
    <polygon class="am" points="11.37 50.18 6.53 55.03 11.43 55.03 11.44 50.12 11.37 50.18"/>
    <path class="r" d="M62.79,25.93c0-.45-.37-.82-.82-.82h-11l11.81,11.81v-10.99Z"/>
    <polygon class="ae" points="62.79 36.94 50.96 25.11 44.53 25.11 62.79 43.36 62.79 36.94"/>
    <polygon class="s" points="62.79 43.36 44.53 25.11 41.38 25.11 62.79 46.52 62.79 43.36"/>
    <polygon class="an" points="62.79 46.52 41.38 25.11 38.15 25.11 62.79 49.75 62.79 46.52"/>
    <polygon class="z" points="62.37 52.62 62.79 52.21 62.79 49.75 38.15 25.11 34.86 25.11 37.22 27.46 62.37 52.62"/>
    <polygon class="aj" points="60.81 54.19 62.37 52.62 37.22 27.47 34.86 25.11 31.72 25.11 60.81 54.19"/>
    <polygon class="af" points="58.35 55.03 59.97 55.03 60.81 54.19 31.72 25.11 28.43 25.11 58.35 55.03"/>
    <polygon class="m" points="55.2 55.03 58.35 55.03 28.43 25.11 25.29 25.11 55.2 55.03"/>
    <polygon class="y" points="35.67 38.82 37.16 40.32 37.22 40.37 51.87 55.03 55.2 55.03 25.29 25.11 21.96 25.11 22.79 25.94 35.67 38.82"/>
    <polygon class="u" points="37.16 40.32 35.66 38.82 22.81 25.96 21.07 27.69 48.4 55.03 51.87 55.03 37.22 40.37 37.16 40.32"/>
    <polygon class="u" points="21.07 27.69 21.05 27.67 20.14 26.76 18.66 28.23 19.58 29.15 29.36 38.94 29.38 38.92 32.48 42.01 32.46 42.03 37.15 46.72 37.15 46.67 45.51 55.03 48.4 55.03 21.07 27.69"/>
    <polygon class="ag" points="37.15 46.67 37.15 46.72 37.16 50.12 37.17 55.03 45.51 55.03 37.15 46.67"/>
    <polygon class="ad" points="19.46 55.03 24.36 55.03 24.36 50.12 19.46 55.03"/>
    <polygon class="ag" points="32.46 42.03 32.48 42.01 29.38 38.92 29.37 38.94 13.28 55.03 19.46 55.03 24.37 50.12 32.46 42.03"/>
    <polygon class="ai" points="33.97 34.35 32.62 35.7 33.97 37.05 33.97 34.35"/>
    <polygon class="ai" points="27.54 27.42 27.54 25.11 27.15 25.11 26.19 26.08 27.54 27.42"/>
    <polygon class="ai" points="27.54 34.35 26.19 35.7 27.54 37.05 27.54 34.35"/>
    <polygon class="ai" points="27.54 43.49 27.54 40.8 26.19 42.14 27.54 43.49"/>
    <polygon class="ai" points="27.54 31.13 26.19 32.48 27.54 33.82 27.54 31.13"/>
    <polygon class="ai" points="5.05 27.92 5.03 27.94 5.03 30.59 5.05 30.6 5.05 27.92"/>
    <polygon class="ai" points="5.05 34.35 5.03 34.37 5.03 37.03 5.05 37.05 5.05 34.35"/>
    <polygon class="ai" points="5.05 40.8 5.03 40.81 5.03 43.48 5.05 43.49 5.05 40.8"/>
    <polygon class="ai" points="5.05 37.58 5.03 37.59 5.03 40.25 5.05 40.27 5.05 37.58"/>
    <polygon class="ai" points="5.05 31.13 5.03 31.15 5.03 33.81 5.05 33.82 5.05 31.13"/>
    <polygon class="ai" points="8.26 30.6 8.26 27.91 6.91 29.26 8.26 30.6"/>
    <polygon class="ai" points="8.26 40.27 8.26 37.58 6.91 38.92 8.26 40.27"/>
    <polygon class="ai" points="8.26 33.82 8.26 31.13 6.91 32.48 8.26 33.82"/>
    <polygon class="ai" points="8.26 25.11 7.85 25.11 6.92 26.04 8.26 27.38 8.26 25.11"/>
    <polygon class="ai" points="11.47 30.6 11.47 27.91 10.13 29.26 11.47 30.6"/>
    <polygon class="ai" points="11.47 33.82 11.47 31.13 10.13 32.48 11.47 33.82"/>
    <polygon class="ai" points="11.47 27.38 11.47 25.11 11.05 25.11 10.13 26.04 11.47 27.38"/>
    <polygon class="ai" points="17.9 30.6 17.9 27.91 16.56 29.26 17.9 30.6"/>
    <polygon class="ai" points="17.9 27.42 17.9 25.11 17.52 25.11 16.56 26.08 17.9 27.42"/>
    <polygon class="ai" points="17.9 46.71 17.9 44.02 16.56 45.37 17.9 46.71"/>
    <polygon class="ai" points="17.9 43.49 17.9 40.8 16.56 42.14 17.9 43.49"/>
    <polygon class="ai" points="17.9 37.58 16.56 38.92 17.9 40.27 17.9 37.58"/>
    <polygon class="ai" points="14.69 30.6 14.69 27.91 13.34 29.26 14.69 30.6"/>
    <polygon class="ai" points="14.69 27.42 14.69 25.11 14.31 25.11 13.34 26.08 14.69 27.42"/>
    <polygon class="ai" points="14.69 49.93 14.69 47.24 13.34 48.59 14.69 49.93"/>
    <polygon class="ai" points="43.59 46.74 43.59 44.05 42.24 45.39 43.59 46.74"/>
    <polygon class="ai" points="40.38 49.95 40.38 47.25 39.04 48.6 40.38 49.95"/>
    <polygon class="ai" points="14.69 46.71 14.69 44.02 13.34 45.37 14.69 46.71"/>
    <polygon class="ai" points="14.69 43.49 14.69 40.8 13.34 42.14 14.69 43.49"/>
    <polygon class="ai" points="14.69 33.82 14.69 31.13 13.34 32.48 14.69 33.82"/>
    <polygon class="ai" points="17.9 53.1 17.9 50.41 16.56 51.75 17.9 53.1"/>
    <polygon class="ai" points="11.44 53.1 11.44 50.41 10.1 51.75 11.44 53.1"/>
    <polygon class="ai" points="13.34 54.97 13.39 55.03 14.69 55.03 14.69 53.63 13.34 54.97"/>
    <polygon class="ai" points="24.32 30.6 24.32 27.91 22.98 29.26 24.32 30.6"/>
    <polygon class="ai" points="24.32 27.42 24.32 25.11 23.94 25.11 22.98 26.08 24.32 27.42"/>
    <polygon class="ai" points="24.32 46.71 24.32 44.02 22.98 45.37 24.32 46.71"/>
    <polygon class="ai" points="24.32 37.05 24.32 34.35 22.98 35.7 24.32 37.05"/>
    <polygon class="ai" points="24.32 40.27 24.32 37.58 22.98 38.92 24.32 40.27"/>
    <polygon class="ai" points="24.32 33.82 24.32 31.13 22.98 32.48 24.32 33.82"/>
    <polygon class="ai" points="21.11 30.6 21.11 27.91 19.76 29.26 21.11 30.6"/>
    <polygon class="ai" points="21.11 27.42 21.11 25.11 20.73 25.11 19.76 26.08 21.11 27.42"/>
    <polygon class="ai" points="21.11 37.05 21.11 34.35 19.76 35.7 21.11 37.05"/>
    <polygon class="ai" points="21.11 43.49 21.11 40.8 19.76 42.14 21.11 43.49"/>
    <polygon class="ai" points="21.11 40.27 21.11 37.58 19.76 38.92 21.11 40.27"/>
    <polygon class="ai" points="21.11 33.82 21.11 31.13 19.76 32.48 21.11 33.82"/>
    <polygon class="ai" points="30.99 27.91 30.99 30.6 32.33 29.26 30.99 27.91"/>
    <polygon class="ai" points="30.99 34.35 30.99 37.05 32.33 35.7 30.99 34.35"/>
    <polygon class="ai" points="24.56 27.91 24.56 30.6 25.91 29.26 24.56 27.91"/>
    <polygon class="ai" points="25.91 26.08 24.94 25.11 24.56 25.11 24.56 27.42 25.91 26.08"/>
    <polygon class="ai" points="24.56 34.35 24.56 37.05 25.91 35.7 24.56 34.35"/>
    <polygon class="ai" points="24.56 43.49 25.91 42.14 24.56 40.8 24.56 43.49"/>
    <polygon class="ai" points="24.56 49.93 25.91 48.59 24.56 47.24 24.56 49.93"/>
    <polygon class="ai" points="18.13 40.8 18.13 43.49 19.48 42.15 18.13 40.8"/>
    <polygon class="ai" points="24.56 31.13 24.56 33.82 25.91 32.48 24.56 31.13"/>
    <polygon class="ai" points="34.2 31.13 34.2 33.82 35.55 32.48 34.2 31.13"/>
    <polygon class="ai" points="37.04 33.98 35.69 32.64 34.35 33.98 37.04 33.98"/>
    <polygon class="ai" points="33.85 37.2 32.5 35.85 31.16 37.2 33.85 37.2"/>
    <polygon class="ai" points="31.16 34.22 32.5 35.56 33.85 34.22 31.16 34.22"/>
    <polygon class="ai" points="30.61 40.41 29.26 39.06 27.92 40.41 30.61 40.41"/>
    <polygon class="ai" points="29.26 38.78 30.61 37.43 27.92 37.43 29.26 38.78"/>
    <polygon class="ai" points="35.69 38.78 37.04 37.43 34.35 37.43 35.69 38.78"/>
    <polygon class="ai" points="27.39 40.65 24.71 40.65 26.05 41.99 27.39 40.65"/>
    <polygon class="ai" points="26.05 48.44 27.39 47.09 24.71 47.09 26.05 48.44"/>
    <polygon class="ai" points="24.19 46.84 22.84 45.49 21.49 46.84 24.19 46.84"/>
    <polygon class="ai" points="26.05 26.21 24.71 27.56 27.39 27.56 26.05 26.21"/>
    <polygon class="ai" points="33.85 30.77 32.5 29.43 31.16 30.77 33.85 30.77"/>
    <polygon class="ai" points="30.61 33.98 29.26 32.64 27.92 33.98 30.61 33.98"/>
    <polygon class="ai" points="26.05 35.85 24.71 37.2 27.39 37.2 26.05 35.85"/>
    <polygon class="ai" points="21.49 43.86 22.83 45.2 24.19 43.86 21.49 43.86"/>
    <polygon class="ai" points="29.26 45.2 30.61 43.86 27.92 43.86 29.26 45.2"/>
    <polygon class="ai" points="15.06 53.26 17.75 53.26 16.41 51.92 15.06 53.26"/>
    <polygon class="ai" points="8.54 53.26 11.24 53.26 9.89 51.92 8.54 53.26"/>
    <polygon class="ai" points="15.06 50.28 16.41 51.63 17.75 50.28 15.06 50.28"/>
    <polygon class="ai" points="17.75 46.84 16.41 45.5 15.06 46.84 17.75 46.84"/>
    <polygon class="ai" points="14.54 50.06 13.2 48.71 11.85 50.06 14.54 50.06"/>
    <polygon class="ai" points="13.2 54.87 14.54 53.52 11.85 53.52 13.2 54.87"/>
    <polygon class="ai" points="29.12 26.08 28.16 25.11 27.78 25.11 27.78 27.42 29.12 26.08"/>
    <polygon class="ai" points="27.78 31.13 27.78 33.82 29.12 32.48 27.78 31.13"/>
    <polygon class="ai" points="5.28 27.91 5.28 30.6 6.62 29.26 5.28 27.91"/>
    <polygon class="ai" points="5.28 34.35 5.28 37.05 6.62 35.7 5.28 34.35"/>
    <polygon class="ai" points="5.28 40.8 5.28 43.49 6.62 42.15 5.28 40.8"/>
    <polygon class="ai" points="5.28 37.58 5.28 40.27 6.62 38.92 5.28 37.58"/>
    <polygon class="ai" points="8.49 27.91 8.49 30.6 9.83 29.26 8.49 27.91"/>
    <polygon class="ai" points="8.49 34.35 8.49 37.05 9.83 35.7 8.49 34.35"/>
    <polygon class="ai" points="8.49 37.58 8.49 40.27 9.83 38.92 8.49 37.58"/>
    <polygon class="ai" points="8.49 31.13 8.49 33.82 9.83 32.48 8.49 31.13"/>
    <polygon class="ai" points="9.83 26.04 8.91 25.11 8.49 25.11 8.49 27.38 9.83 26.04"/>
    <polygon class="ai" points="19.48 26.08 18.52 25.11 18.13 25.11 18.13 27.42 19.48 26.08"/>
    <polygon class="ai" points="18.13 34.35 18.13 37.05 19.48 35.7 18.13 34.35"/>
    <polygon class="ai" points="18.13 37.58 18.13 40.27 19.48 38.92 18.13 37.58"/>
    <polygon class="ai" points="18.13 31.13 18.13 33.82 19.48 32.48 18.13 31.13"/>
    <polygon class="ai" points="11.71 27.91 11.71 30.6 13.05 29.26 11.71 27.91"/>
    <polygon class="ai" points="13.05 26.08 12.09 25.11 11.71 25.11 11.71 27.42 13.05 26.08"/>
    <polygon class="ai" points="11.71 47.24 11.71 49.93 13.05 48.59 11.71 47.24"/>
    <polygon class="ai" points="53.1 50.06 51.75 48.71 50.41 50.06 53.1 50.06"/>
    <polygon class="ai" points="50.26 47.24 50.26 49.93 51.6 48.59 50.26 47.24"/>
    <polygon class="ai" points="11.71 44.02 11.71 46.71 13.05 45.37 11.71 44.02"/>
    <polygon class="ai" points="11.71 34.35 11.71 37.05 13.05 35.7 11.71 34.35"/>
    <polygon class="ai" points="11.71 31.13 11.71 33.82 13.05 32.48 11.71 31.13"/>
    <polygon class="ai" points="14.92 50.42 14.92 53.11 16.26 51.77 14.92 50.42"/>
    <polygon class="ai" points="11.71 53.64 11.71 55.03 13.02 55.03 13.05 54.99 11.71 53.64"/>
    <polygon class="ai" points="14.92 27.91 14.92 30.6 16.26 29.26 14.92 27.91"/>
    <polygon class="ai" points="40.6 31.13 40.6 33.82 41.95 32.48 40.6 31.13"/>
    <polygon class="ai" points="16.26 26.08 15.3 25.11 14.92 25.11 14.92 27.42 16.26 26.08"/>
    <polygon class="ai" points="14.92 44.02 14.92 46.71 16.26 45.37 14.92 44.02"/>
    <polygon class="ai" points="14.92 40.8 14.92 43.49 16.26 42.15 14.92 40.8"/>
    <polygon class="ai" points="14.92 31.13 14.92 33.82 16.26 32.48 14.92 31.13"/>
    <polygon class="ai" points="21.35 27.91 21.35 30.6 22.69 29.25 21.35 27.91"/>
    <polygon class="ai" points="22.69 26.07 21.73 25.11 21.35 25.11 21.35 27.42 22.69 26.07"/>
    <polygon class="ai" points="21.35 44.02 21.35 46.71 22.69 45.36 21.35 44.02"/>
    <polygon class="ai" points="47.06 44.02 47.06 46.71 48.41 45.36 47.06 44.02"/>
    <polygon class="ai" points="27.78 46.71 29.12 45.36 27.78 44.02 27.78 46.71"/>
    <polygon class="ai" points="21.35 34.35 21.35 37.04 22.69 35.69 21.35 34.35"/>
    <polygon class="ai" points="21.35 37.57 21.35 40.27 22.69 38.92 21.35 37.57"/>
    <polygon class="ai" points="21.35 31.13 21.35 33.82 22.69 32.47 21.35 31.13"/>
    <rect class="ai" x="5.75" y="33.07" width="2.04" height="2.04" transform="translate(-22.15 14.81) rotate(-45.07)"/>
    <rect class="ai" x="5.75" y="36.29" width="2.04" height="2.04" transform="translate(-24.43 15.75) rotate(-45.07)"/>
    <rect class="ai" x="5.75" y="26.63" width="2.04" height="2.04" transform="translate(-17.57 12.89) rotate(-45.01)"/>
    <rect class="ai" x="5.75" y="29.85" width="2.04" height="2.04" transform="translate(-19.85 13.83) rotate(-45.01)"/>
    <rect class="ai" x="8.96" y="33.07" width="2.04" height="2.04" transform="translate(-21.2 17.08) rotate(-45.07)"/>
    <rect class="ai" x="8.96" y="36.29" width="2.04" height="2.04" transform="translate(-23.48 18.02) rotate(-45.07)"/>
    <rect class="ai" x="8.96" y="26.63" width="2.04" height="2.04" transform="translate(-16.63 15.16) rotate(-45.01)"/>
    <rect class="ai" x="8.96" y="29.85" width="2.04" height="2.04" transform="translate(-18.9 16.09) rotate(-44.99)"/>
    <rect class="ai" x="12.18" y="33.07" width="2.03" height="2.03" transform="translate(-20.28 19.41) rotate(-45.17)"/>
    <rect class="ai" x="12.18" y="45.96" width="2.03" height="2.03" transform="translate(-29.38 23.14) rotate(-45.07)"/>
    <polygon class="ai" points="13.2 29.43 11.76 30.87 13.2 32.31 14.63 30.87 13.2 29.43"/>
    <rect class="ai" x="15.39" y="26.66" width="2.04" height="2.04" transform="translate(-14.77 19.72) rotate(-45.03)"/>
    <rect class="ai" x="15.39" y="42.74" width="2.03" height="2.03" transform="translate(-26.13 24.4) rotate(-44.97)"/>
    <rect class="ai" x="15.39" y="29.85" width="2.04" height="2.04" transform="translate(-17.01 20.61) rotate(-44.95)"/>
    <polygon class="ai" points="21.06 27.68 19.62 26.24 18.19 27.68 19.62 29.12 21.06 27.68"/>
    <rect class="ai" x="18.61" y="33.07" width="2.04" height="2.04" transform="translate(-18.37 23.89) rotate(-45.05)"/>
    <rect class="ai" x="18.61" y="39.52" width="2.03" height="2.03" transform="translate(-22.9 25.71) rotate(-44.95)"/>
    <rect class="ai" x="18.61" y="29.85" width="2.04" height="2.04" transform="translate(-16.09 22.95) rotate(-45.05)"/>
    <rect class="ai" x="21.82" y="26.66" width="2.04" height="2.04" transform="translate(-12.89 24.32) rotate(-45.11)"/>
    <rect class="ai" x="21.82" y="36.29" width="2.04" height="2.04" transform="translate(-19.69 27.07) rotate(-44.99)"/>
    <polygon class="ai" points="22.83 29.43 21.4 30.87 22.83 32.31 24.28 30.87 22.83 29.43"/>
    <rect class="ai" x="25.03" y="29.85" width="2.04" height="2.04" transform="translate(-14.2 27.46) rotate(-44.99)"/>
    <rect class="ai" x="25.03" y="33.03" width="2.04" height="2.04" transform="translate(-16.45 28.43) rotate(-45.05)"/>
    <polygon class="ai" points="30.76 37.58 29.41 38.93 30.76 40.27 30.76 37.58"/>
    <polygon class="ai" points="29.12 38.92 27.78 37.58 27.78 40.27 29.12 38.92"/>
    <polygon class="ai" points="34.2 37.58 34.2 40.27 35.55 38.92 34.2 37.58"/>
    <polygon class="ai" points="37.39 34.35 37.39 37.04 38.74 35.69 37.39 34.35"/>
    <polygon class="ai" points="37.39 40.8 37.39 43.49 38.74 42.15 37.39 40.8"/>
    <polygon class="ai" points="40.6 37.58 40.6 40.27 41.95 38.92 40.6 37.58"/>
    <polygon class="ai" points="46.85 49.93 46.85 47.24 45.51 48.59 46.85 49.93"/>
    <polygon class="ai" points="43.59 53.16 43.59 50.46 42.24 51.81 43.59 53.16"/>
    <polygon class="ai" points="40.63 53.15 41.98 51.81 40.63 50.46 40.63 53.15"/>
    <polygon class="ai" points="14.92 47.24 14.92 50.06 17.74 50.06 14.92 47.24"/>
    <polygon class="ai" points="17.9 49.89 17.9 47.07 15.08 47.07 17.9 49.89"/>
    <polygon class="ai" points="11.71 50.45 11.71 53.27 14.53 53.27 11.71 50.45"/>
    <polygon class="ai" points="14.69 53.1 14.69 50.28 11.87 50.28 14.69 53.1"/>
    <polygon class="ai" points="21.35 40.81 21.35 43.63 24.16 43.63 21.35 40.81"/>
    <polygon class="ai" points="24.32 43.47 24.32 40.65 21.51 40.65 24.32 43.47"/>
    <polygon class="ai" points="18.13 44.02 18.13 46.84 20.95 46.84 18.13 44.02"/>
    <polygon class="ai" points="21.11 46.68 21.11 43.86 18.29 43.86 21.11 46.68"/>
    <polygon class="ai" points="30.59 37.2 27.78 34.38 27.78 37.2 27.78 37.2 30.59 37.2"/>
    <polygon class="ai" points="30.76 37.04 30.76 34.22 27.93 34.22 30.76 37.04"/>
    <polygon class="ai" points="24.56 40.41 27.38 40.41 24.56 37.59 24.56 40.41"/>
    <polygon class="ai" points="30.99 31.16 30.99 33.98 33.81 33.98 30.99 31.16"/>
    <polygon class="ai" points="33.97 31 31.15 31 33.97 33.82 33.97 31"/>
    <polygon class="ai" points="18.13 50.47 18.13 53.29 20.95 53.29 18.13 50.47"/>
    <polygon class="ai" points="14.92 55.03 16.26 55.03 14.92 53.68 14.92 55.03"/>
    <polygon class="ai" points="15.08 53.52 16.59 55.03 17.9 55.03 17.9 53.52 15.08 53.52"/>
    <polygon class="ai" points="8.61 53.52 10.12 55.03 11.43 55.03 11.43 53.52 8.61 53.52"/>
    <polygon class="ai" points="47.23 53.53 48.73 55.03 50.04 55.03 50.04 53.53 47.23 53.53"/>
    <polygon class="ai" points="24.56 44.04 24.56 46.86 27.38 46.86 24.56 44.04"/>
    <polygon class="ai" points="27.54 46.7 27.54 43.88 24.73 43.88 27.54 46.7"/>
    <polygon class="ai" points="24.32 49.91 24.32 47.09 21.51 47.09 24.32 49.91"/>
    <polygon class="ai" points="30.99 37.61 30.99 40.43 33.81 40.43 30.99 37.61"/>
    <polygon class="ai" points="33.97 40.27 33.97 37.45 31.15 37.45 33.97 40.27"/>
    <polygon class="ai" points="27.78 40.82 27.78 43.65 30.59 43.65 27.78 40.82"/>
    <polygon class="ai" points="30.76 43.48 30.76 40.66 27.93 40.66 30.76 43.48"/>
    <polygon class="ai" points="34.2 34.4 34.2 37.21 37.02 37.21 34.2 34.4"/>
    <polygon class="ai" points="37.19 37.05 37.19 34.24 34.36 34.24 37.19 37.05"/>
    <polygon class="ai" points="10.72 25.11 9.24 25.11 9.98 25.85 10.72 25.11"/>
    <polygon class="ai" points="13.94 25.11 12.46 25.11 13.2 25.85 13.94 25.11"/>
    <polygon class="ai" points="17.18 25.11 15.63 25.11 16.41 25.88 17.18 25.11"/>
    <polygon class="ai" points="20.39 25.11 18.85 25.11 19.62 25.88 20.39 25.11"/>
    <polygon class="ai" points="23.61 25.11 22.06 25.11 22.83 25.88 23.61 25.11"/>
    <polygon class="ai" points="26.79 25.11 25.31 25.11 26.05 25.85 26.79 25.11"/>
    <polygon class="ai" points="32.62 55 32.64 55.03 33.97 55.03 33.97 53.66 32.62 55"/>
    <polygon class="ai" points="42.12 51.98 40.66 53.44 42.25 55.03 43.58 55.03 43.58 53.44 42.12 51.98"/>
    <polygon class="ai" points="43.86 47.23 43.86 49.92 45.2 48.58 43.86 47.23"/>
    <polygon class="ai" points="43.89 50.2 46.82 53.13 46.82 50.21 45.36 48.75 43.89 50.2"/>
    <polygon class="ai" points="40.6 43.75 42.11 45.26 43.58 43.8 40.6 40.82 40.6 43.75"/>
    <polygon class="ai" points="43.59 40.56 42.12 39.1 40.67 40.56 43.59 43.48 43.59 40.56"/>
    <polygon class="ai" points="43.59 37 43.59 34.08 42.12 32.61 40.67 34.08 43.59 37"/>
    <polygon class="ai" points="40.6 47.23 40.6 50.15 42.12 51.67 43.59 50.21 40.6 47.23"/>
    <polygon class="ai" points="37.42 44.06 37.42 46.98 38.88 48.45 40.34 46.98 37.42 44.06"/>
    <polygon class="ai" points="37.48 43.79 40.41 46.72 40.41 43.79 38.95 42.33 37.48 43.79"/>
    <polygon class="ai" points="46.85 46.98 43.87 43.99 43.87 46.91 45.39 48.44 46.85 46.98"/>
    <polygon class="ai" points="40.33 40.25 40.33 37.32 38.87 35.86 37.4 37.32 40.33 40.25"/>
    <polygon class="ai" points="50.06 49.88 50.06 46.96 48.6 45.5 47.13 46.96 50.06 49.88"/>
    <polygon class="ai" points="19.62 54.87 20.97 53.52 18.27 53.52 19.62 54.87"/>
    <polygon class="ai" points="18.13 53.64 18.13 55.03 19.44 55.03 19.48 54.99 18.13 53.64"/>
    <polygon class="ai" points="18.13 47.23 18.13 49.92 19.48 48.57 18.13 47.23"/>
    <polygon class="ai" points="47.16 53.23 49.85 53.23 48.5 51.88 47.16 53.23"/>
    <polygon class="ai" points="47.01 50.39 47.01 53.08 48.36 51.73 47.01 50.39"/>
    <polygon class="ai" points="43.87 53.64 43.87 55.03 45.18 55.03 45.22 54.99 43.87 53.64"/>
    <polygon class="ai" points="37.41 50.46 37.41 55.03 38.72 55.03 40.35 53.4 37.41 50.46"/>
    <polygon class="ai" points="39.09 55.03 40.4 55.03 40.4 53.71 39.09 55.03"/>
    <polygon class="ai" points="53.31 53.27 56.3 53.27 53.31 50.28 50.33 50.28 53.31 53.27"/>
    <polygon class="ai" points="14.65 27.68 13.21 26.24 11.77 27.68 13.21 29.12 14.65 27.68"/>
    <polygon class="ai" points="34.2 43.74 34.11 43.65 30.94 43.65 34.2 46.92 34.2 43.74"/>
    <polygon class="ai" points="27.78 40.27 27.78 37.58 27.78 37.2 27.78 37.2 27.39 37.2 24.71 37.2 24.44 37.2 27.78 40.54 27.78 40.27"/>
    <polygon class="ai" points="33.95 53.34 35.63 55.03 37.16 55.03 37.16 50.13 33.95 53.34"/>
    <polygon class="ai" points="37.17 46.71 37.17 40.68 31.14 40.68 34.11 43.65 34.2 43.74 37.17 46.71"/>
    <polygon class="ag" points="30.96 43.45 32.31 42.1 30.96 40.75 30.96 43.45"/>
    <rect class="ag" x="21.81" y="33.07" width="2.03" height="2.03" transform="translate(-17.42 26.13) rotate(-45.01)"/>
    <rect class="ag" x="18.61" y="36.27" width="2.03" height="2.03" transform="translate(-20.61 24.78) rotate(-44.97)"/>
    <rect class="u" x="15.38" y="39.51" width="2.04" height="2.04" transform="translate(-23.84 23.44) rotate(-44.97)"/>
    <rect class="u" x="12.16" y="42.72" width="2.04" height="2.04" transform="translate(-27.06 22.12) rotate(-44.99)"/>
    <polygon class="ag" points="19.59 48.44 20.94 47.09 18.25 47.09 19.59 48.44"/>
    <polygon class="p" points="18.13 27.91 18.13 30.6 19.48 29.26 18.13 27.91"/>
    <polygon class="ag" points="29.27 26.21 28.02 27.46 30.51 27.46 29.27 26.21"/>
    <rect class="x" x="31.49" y="26.66" width="2.03" height="2.03" transform="translate(-10.05 31.1) rotate(-45.02)"/>
    <polygon class="x" points="30.76 27.42 30.76 25.11 30.37 25.11 29.41 26.08 30.76 27.42"/>
    <polygon class="x" points="33.97 30.6 33.97 27.91 32.62 29.26 33.97 30.6"/>
    <polygon class="al" points="33.97 27.42 33.97 25.11 33.59 25.11 32.62 26.08 33.97 27.42"/>
    <polygon class="j" points="37.18 27.42 37.18 25.11 36.8 25.11 35.83 26.08 37.18 27.42"/>
    <polygon class="x" points="37.18 33.82 37.18 31.13 35.83 32.48 37.18 33.82"/>
    <polygon class="o" points="46.85 27.95 45.5 29.29 46.85 30.64 46.85 27.95"/>
    <polygon class="ao" points="43.87 27.95 43.87 30.64 45.21 29.29 43.87 27.95"/>
    <polygon class="j" points="40.38 27.91 39.03 29.26 40.38 30.6 40.38 27.91"/>
    <polygon class="al" points="37.39 27.91 37.39 30.6 38.74 29.26 37.39 27.91"/>
    <polygon class="x" points="32.33 26.08 31.37 25.11 30.99 25.11 30.99 27.42 32.33 26.08"/>
    <polygon class="j" points="51.89 42.14 53.24 43.49 53.24 40.8 51.89 42.14"/>
    <polygon class="al" points="51.6 42.14 50.26 40.81 50.26 43.49 51.6 42.14"/>
    <polygon class="al" points="35.55 26.08 34.58 25.11 34.2 25.11 34.2 27.42 35.55 26.08"/>
    <polygon class="o" points="43.59 27.39 43.59 25.11 43.18 25.11 42.24 26.04 43.59 27.39"/>
    <polygon class="ao" points="41.94 26.04 41 25.11 40.59 25.11 40.59 27.39 41.94 26.04"/>
    <polygon class="x" points="34.35 31 35.69 32.35 37.04 31 34.35 31"/>
    <polygon class="ag" points="19.62 42.28 18.28 43.63 20.97 43.63 19.62 42.28"/>
    <polygon class="ao" points="56.69 43.49 58.03 42.14 56.69 40.8 56.69 43.49"/>
    <polygon class="ao" points="59.52 43.63 58.18 42.28 56.83 43.63 59.52 43.63"/>
    <polygon class="al" points="35.69 26.21 34.35 27.56 37.04 27.56 35.69 26.21"/>
    <path class="ac" d="M62.79,27.3v-1.37c0-.29-.16-.54-.39-.68l-.83.83,1.22,1.22Z"/>
    <polygon class="ac" points="56.45 27.42 56.45 25.11 56.06 25.11 55.09 26.08 56.45 27.42"/>
    <polygon class="y" points="54.81 26.08 53.85 25.11 53.46 25.11 53.46 27.42 54.81 26.08"/>
    <polygon class="m" points="50.11 27.41 50.11 25.11 49.71 25.11 48.76 26.06 50.11 27.41"/>
    <polygon class="ap" points="48.48 26.06 47.52 25.11 47.13 25.11 47.13 27.41 48.48 26.06"/>
    <polygon class="al" points="54.96 45.49 53.61 46.84 56.31 46.84 54.96 45.49"/>
    <polygon class="al" points="53.47 46.71 54.81 45.36 53.47 44.02 53.47 46.71"/>
    <polygon class="x" points="50.04 46.71 50.04 44.02 48.69 45.37 50.04 46.71"/>
    <polygon class="o" points="53.27 37.1 53.27 34.4 51.92 35.75 53.27 37.1"/>
    <polygon class="x" points="45.57 42.21 46.91 43.56 46.91 40.87 45.57 42.21"/>
    <polygon class="m" points="56.47 33.89 56.47 31.2 55.13 32.55 56.47 33.89"/>
    <polygon class="ap" points="62.7 40.33 61.36 38.98 60.01 40.33 62.7 40.33"/>
    <polygon class="ap" points="59.87 37.5 59.87 40.19 61.21 38.85 59.87 37.5"/>
    <polygon class="o" points="56.47 37.58 55.12 38.93 56.47 40.27 56.47 37.58"/>
    <polygon class="ao" points="53.49 40.27 54.83 38.92 53.49 37.58 53.49 40.27"/>
    <polygon class="x" points="40.37 37.04 40.37 34.35 39.03 35.7 40.37 37.04"/>
    <polygon class="m" points="58.29 35.7 59.64 37.04 59.64 34.35 58.29 35.7"/>
    <polygon class="ap" points="56.66 34.35 56.66 37.04 58.01 35.69 56.66 34.35"/>
    <polygon class="ac" points="59.7 27.98 58.35 29.33 59.7 30.67 59.7 27.98"/>
    <polygon class="al" points="43.88 37.05 45.23 35.7 43.88 34.35 43.88 37.05"/>
    <polygon class="ao" points="47.07 31.13 47.07 33.82 48.42 32.48 47.07 31.13"/>
    <polygon class="ac" points="62.79 33.74 62.79 31.27 61.55 32.5 62.79 33.74"/>
    <polygon class="y" points="59.88 31.16 59.88 33.85 61.22 32.5 59.88 31.16"/>
    <polygon class="ap" points="50.3 27.93 50.3 30.63 51.65 29.28 50.3 27.93"/>
    <polygon class="x" points="34.2 27.95 34.2 30.77 37.02 30.77 34.2 27.95"/>
    <polygon class="al" points="37.19 30.61 37.19 27.79 34.36 27.79 37.19 30.61"/>
    <polygon class="ao" points="40.39 25.11 38.1 25.11 40.39 27.4 40.39 25.11"/>
    <polygon class="x" points="53.68 50.28 56.5 53.1 56.5 50.29 56.5 50.28 53.68 50.28"/>
    <polygon class="x" points="56.68 50.47 56.68 53.29 59.5 53.29 56.68 50.47"/>
    <polygon class="al" points="56.5 49.91 56.5 47.09 53.68 47.09 56.5 49.91"/>
    <polygon class="al" points="56.68 50.1 59.5 50.1 56.68 47.28 56.68 50.1"/>
    <polygon class="x" points="30.03 25.11 28.49 25.11 29.26 25.88 30.03 25.11"/>
    <polygon class="al" points="33.25 25.11 31.71 25.11 32.48 25.88 33.25 25.11"/>
    <polygon class="j" points="36.46 25.11 34.92 25.11 35.69 25.88 36.46 25.11"/>
    <polygon class="o" points="42.9 25.11 41.35 25.11 42.12 25.88 42.9 25.11"/>
    <polygon class="m" points="49.41 25.11 47.87 25.11 48.64 25.88 49.41 25.11"/>
    <polygon class="ac" points="55.75 25.11 54.2 25.11 54.98 25.88 55.75 25.11"/>
    <path class="ac" d="M62.15,25.15c-.06-.01-.11-.04-.18-.04h-1.33l.77.77.73-.74Z"/>
    <polygon class="x" points="40.35 34.12 37.39 31.16 37.39 34.08 38.88 35.58 40.35 34.12"/>
    <polygon class="al" points="40.37 33.81 40.37 33.7 37.65 30.98 40.37 30.98 40.37 30.89 38.91 29.43 37.45 30.89 40.37 33.81"/>
    <polygon class="j" points="40.6 27.98 40.6 30.91 43.53 30.91 40.6 27.98"/>
    <polygon class="ao" points="43.59 27.65 42.12 26.19 40.64 27.69 43.59 30.64 43.59 27.65"/>
    <polygon class="x" points="46.79 40.59 45.73 39.53 45.81 39.53 43.87 37.59 43.87 40.51 45.37 42.01 46.79 40.59"/>
    <polygon class="al" points="46.85 37.32 45.39 35.86 43.93 37.32 46.14 39.53 46.85 39.53 46.85 37.32"/>
    <polygon class="ao" points="46.85 33.84 46.85 30.92 45.39 29.46 43.93 30.92 46.85 33.84"/>
    <polygon class="o" points="45.37 29.18 46.84 27.72 44.23 25.11 43.87 25.11 43.87 27.67 45.37 29.18"/>
    <polygon class="ap" points="46.85 25.11 44.56 25.11 46.85 27.4 46.85 25.11"/>
    <polygon class="x" points="47.07 43.75 48.54 45.21 49.97 43.78 47.07 40.88 47.07 43.75"/>
    <polygon class="j" points="50 37.35 47.07 34.42 47.07 37.35 48.54 38.81 50 37.35"/>
    <polygon class="ao" points="50.06 37.08 50.06 34.16 48.6 32.7 47.13 34.16 50.06 37.08"/>
    <polygon class="ap" points="50.06 27.62 48.64 26.21 47.13 27.71 50.06 30.64 50.06 27.62"/>
    <polygon class="j" points="38.91 29.13 40.37 27.67 37.81 25.11 37.39 25.11 37.39 27.61 38.91 29.13"/>
    <polygon class="j" points="53.21 40.51 50.28 37.59 50.28 40.51 51.75 41.98 53.21 40.51"/>
    <polygon class="o" points="53.21 34.11 50.28 31.19 50.28 34.11 51.75 35.57 53.21 34.11"/>
    <polygon class="ap" points="53.27 33.84 53.27 30.92 51.81 29.46 50.35 30.92 53.27 33.84"/>
    <polygon class="al" points="50.35 43.72 53.27 46.64 53.27 43.72 51.81 42.26 50.35 43.72"/>
    <polygon class="y" points="53.27 25.11 50.98 25.11 53.27 27.4 53.27 25.11"/>
    <polygon class="ao" points="53.51 40.52 56.44 43.44 56.44 40.52 54.98 39.05 53.51 40.52"/>
    <polygon class="o" points="56.38 37.31 53.45 34.39 53.45 37.31 54.91 38.77 56.38 37.31"/>
    <polygon class="m" points="56.4 30.89 53.45 27.94 53.45 30.86 54.93 32.34 56.4 30.89"/>
    <polygon class="y" points="56.44 27.68 54.98 26.21 53.51 27.67 56.44 30.6 56.44 27.68"/>
    <polygon class="ap" points="56.73 37.29 59.69 40.25 59.69 37.32 58.19 35.83 56.73 37.29"/>
    <polygon class="m" points="59.63 34.11 56.71 31.19 56.71 34.11 58.17 35.57 59.63 34.11"/>
    <polygon class="ac" points="58.17 29.13 59.63 27.67 57.07 25.11 56.71 25.11 56.71 27.67 58.17 29.13"/>
    <polygon class="ac" points="59.69 25.11 57.39 25.11 59.69 27.4 59.69 25.11"/>
    <polygon class="y" points="59.92 34.1 62.79 36.97 62.79 34.05 61.39 32.64 59.92 34.1"/>
    <polygon class="ac" points="59.91 30.91 61.37 32.37 62.79 30.96 62.79 30.85 59.91 27.98 59.91 30.91"/>
    <polygon class="i" points="5.03 43.82 5.03 50.12 8.18 46.98 5.03 43.82"/>
    <polygon class="x" points="56.95 53.53 58.45 55.03 59.97 55.03 60.61 54.39 59.74 53.53 56.95 53.53"/>
    <polygon class="j" points="56.82 47.09 59.81 50.08 62.6 50.08 59.61 47.09 56.82 47.09"/>
    <polygon class="ao" points="59.96 46.88 62.74 46.88 59.75 43.9 56.97 43.9 59.96 46.88"/>
    <polygon class="o" points="62.79 46.55 62.79 43.9 60.13 43.9 62.79 46.55"/>
    <polygon class="ap" points="62.79 43.34 62.79 40.64 60.09 40.64 62.79 43.34"/>
    <polygon class="t" points="17.9 34.35 16.56 35.7 17.9 37.05 17.9 34.35"/>
    <polygon class="t" points="17.9 31.13 16.56 32.48 17.9 33.82 17.9 31.13"/>
    <polygon class="t" points="14.69 34.35 13.34 35.7 14.69 37.05 14.69 34.35"/>
    <polygon class="t" points="14.69 40.27 14.69 37.58 13.34 38.92 14.69 40.27"/>
    <polygon class="t" points="11.71 40.8 11.71 43.49 13.05 42.15 11.71 40.8"/>
    <polygon class="t" points="11.71 37.58 11.71 40.27 13.05 38.92 11.71 37.58"/>
    <polygon class="t" points="14.92 34.35 14.92 37.05 16.26 35.7 14.92 34.35"/>
    <polygon class="t" points="14.92 37.58 14.92 40.27 16.26 38.92 14.92 37.58"/>
    <polygon class="t" points="14.63 37.31 13.2 35.87 11.76 37.31 13.2 38.75 14.63 37.31"/>
    <rect class="t" x="12.18" y="39.52" width="2.03" height="2.03" transform="translate(-24.8 21.21) rotate(-45.01)"/>
    <rect class="ak" x="15.39" y="33.07" width="2.04" height="2.04" transform="translate(-19.3 21.59) rotate(-45.01)"/>
    <rect class="ak" x="15.39" y="36.29" width="2.03" height="2.03" transform="translate(-21.57 22.5) rotate(-44.95)"/>
    <polygon class="g" points="21.55 53.53 23.05 55.03 24.37 55.03 24.37 53.53 21.55 53.53"/>
    <polygon class="g" points="19.77 54.97 19.81 55.03 21.11 55.03 21.11 53.63 19.77 54.97"/>
    <polygon class="g" points="24.37 53.13 24.37 50.43 23.03 51.78 24.37 53.13"/>
    <polygon class="g" points="21.53 53.29 24.22 53.29 22.88 51.95 21.53 53.29"/>
    <polygon class="y" points="49.98 55.03 54.85 55.03 49.98 50.15 49.98 55.03"/>
    <polygon class="af" points="56.5 50.28 56.5 50.29 59.74 53.53 60.61 54.39 62.79 52.21 62.79 50.17 56.38 50.17 56.5 50.28"/>
    <polygon class="n" points="31.03 34.14 31.03 27.46 30.51 27.46 28.02 27.46 24.35 27.46 31.03 34.14"/>
    <polygon class="r" points="46.79 40.59 47.07 40.88 49.97 43.78 50.26 44.07 50.26 43.49 50.26 40.81 50.26 39.53 46.85 39.53 46.14 39.53 45.81 39.53 45.73 39.53 46.79 40.59"/>
    <polygon class="o" points="6.51 55.03 9.78 55.03 8.15 53.39 6.51 55.03"/>
    <polygon class="t" points="11.44 37.29 8.22 40.51 11.44 43.73 11.44 37.29"/>
    <rect class="n" x="18.81" y="47.9" width="4.6" height="4.6" transform="translate(-29.31 29.63) rotate(-45)"/>
    <polygon class="r" points="40.37 33.7 43.78 37.1 43.78 30.98 40.37 30.98 37.65 30.98 40.37 33.7"/>
    <polygon class="ag" points="21.47 40.43 24.16 40.43 22.82 39.09 21.47 40.43"/>
    <polygon class="ag" points="24.68 43.65 27.37 43.65 26.03 42.3 24.68 43.65"/>
  </g>
  <g class="aq">
    <rect class="l" x="4.71" y="24.79" width="58.39" height="30.55"/>
  </g>
  <g>
    <path class="w" d="M18.75,20.11h-3.33l-1.02-2.45h-5.53l-.93,2.45h-3.26l4.98-12.38h3.58l5.5,12.38ZM11.51,10.69l-1.81,4.81h3.81l-2-4.81Z"/>
    <polygon class="w" points="30.81 7.74 33.49 7.74 33.49 20.11 30.41 20.11 30.41 12.38 27.07 16.26 26.6 16.26 23.26 12.38 23.26 20.11 20.18 20.11 20.18 7.74 22.86 7.74 26.84 12.33 30.81 7.74"/>
    <path class="w" d="M41.31,7.74c4.52,0,6.84,2.81,6.84,6.2s-2.25,6.17-7.19,6.17h-5.11V7.74h5.46ZM38.94,17.84h2.02c3.1,0,4.03-2.11,4.03-3.92,0-2.13-1.14-3.92-4.07-3.92h-1.97v7.84Z"/>
    <polygon class="w" points="60.68 10.67 54.29 10.67 50.4 6.78 64.57 6.78 64.57 20.94 60.68 17.05 60.68 10.67"/>
    <polygon class="w" points="54.29 17.06 54.29 11.45 50.28 15.46 50.28 21.06 55.89 21.06 59.9 17.06 54.29 17.06"/>
    <path class="w" d="M11.1,36.08h3.05c.5,0,.68-.2.68-.62v-.16c0-.53-.26-.63-.85-.63h-2.88v1.41ZM9.27,33.18h5.56c1.41,0,1.79.7,1.79,1.77v.34c0,.8-.18,1.27-1.03,1.47v.02c.54.1,1,.34,1,1.32v1.87h-1.83v-1.58c0-.63-.18-.83-.75-.83h-2.9v2.41h-1.84v-6.79"/>
    <path class="w" d="M28.58,38.44h2.53c.79,0,1.09-.22,1.09-1.07v-1.63c0-.85-.3-1.07-1.09-1.07h-2.53v3.77ZM26.75,33.18h4.81c1.83,0,2.48.6,2.48,2.08v2.63c0,1.48-.65,2.08-2.48,2.08h-4.81v-6.79"/>
    <polygon class="w" points="35.11 33.18 41.9 33.18 41.9 34.56 36.94 34.56 36.94 35.93 41.64 35.93 41.64 37.16 36.94 37.16 36.94 38.54 42 38.54 42 39.97 35.11 39.97 35.11 33.18"/>
    <polygon class="w" points="51.21 33.18 54.05 33.18 56.71 38.17 56.73 38.22 56.73 33.18 58.56 33.18 58.56 39.97 55.72 39.97 53.06 34.81 53.04 35.04 53.04 39.97 51.21 39.97 51.21 33.18"/>
    <path class="w" d="M23.42,36.24h-3.81v-.36c0-.74.18-1.19,1.14-1.19h2.67v1.54ZM20.36,33.18c-1.64,0-2.6.41-2.6,2.14v4.65h1.86v-2.39h3.81v2.39h1.81v-6.79h-4.88"/>
    <path class="w" d="M48.31,37.29c0,.85-.19,1.18-1.03,1.18h-1.45c-.85,0-1.04-.33-1.04-1.18v-2.61h2.39c.94,0,1.13.44,1.13,1.17v1.43ZM47.56,33.18h-4.62v4.67c0,1.72.96,2.12,2.59,2.12h2.03c1.62,0,2.59-.4,2.59-2.12v-2.55c0-1.72-.96-2.12-2.59-2.12"/>
    <path class="w" d="M17.35,44.72h2.06v.82c.01.6-.11.99-.37,1.16-.25.17-.82.26-1.7.26-.81,0-1.35-.11-1.61-.34-.26-.23-.39-.7-.39-1.41,0-.9.05-1.48.16-1.72.13-.29.33-.49.59-.58.26-.1.71-.15,1.35-.15.83,0,1.37.08,1.61.23.24.16.36.5.36,1.04h-.9c-.01-.27-.08-.44-.2-.51-.12-.07-.41-.1-.89-.1-.51,0-.84.06-.98.17-.14.11-.2.38-.2.79v.42s0,.53,0,.53c0,.41.07.67.21.78.14.11.45.16.95.16s.79-.04.92-.14c.13-.1.2-.32.2-.67v-.17s-1.17,0-1.17,0v-.58"/>
    <path class="w" d="M21.63,44.87h1.27c.31,0,.51-.05.61-.15.1-.1.15-.29.15-.58s-.05-.49-.13-.57c-.09-.09-.27-.13-.56-.13h-1.33v1.42ZM20.74,46.92v-4.13h2.31c.57,0,.97.09,1.18.26.22.18.33.5.33.96,0,.42-.05.71-.16.86-.11.15-.33.26-.67.32v.03c.52.03.78.3.78.8v.91h-.89v-.75c0-.43-.24-.64-.71-.64h-1.28v1.39h-.89"/>
    <path class="w" d="M28.59,45.55l-.81-2.16-.79,2.16h1.6ZM28.79,46.13h-2.02l-.29.79h-.94l1.55-4.13h1.34l1.58,4.13h-.92l-.3-.79"/>
    <path class="w" d="M32,44.93h1.01c.4,0,.66-.04.76-.12.11-.08.17-.28.17-.58,0-.35-.05-.57-.14-.65-.09-.09-.32-.12-.71-.12h-1.1v1.48ZM31.11,46.92v-4.13h2.11c.63,0,1.06.09,1.28.29.22.2.33.57.33,1.13s-.1.92-.32,1.11c-.21.18-.64.27-1.27.27h-.2s-1.04,0-1.04,0v1.33h-.89"/>
    <polygon class="w" points="40.07 42.79 40.07 46.92 39.18 46.92 39.18 45.14 36.99 45.14 36.99 46.92 36.1 46.92 36.1 42.79 36.99 42.79 36.99 44.48 39.18 44.48 39.18 42.79 40.07 42.79"/>
    <rect class="w" x="41.59" y="42.79" width=".88" height="4.13"/>
    <path class="w" d="M46.89,45.45h.89v.14c0,.58-.12.95-.36,1.12-.23.17-.76.25-1.57.25-.92,0-1.49-.13-1.7-.39-.21-.27-.32-.98-.32-2.14,0-.69.15-1.13.43-1.35.29-.21.89-.32,1.8-.32.67,0,1.12.09,1.34.27.22.17.33.53.33,1.05v.1s-.88,0-.88,0v-.1c0-.27-.06-.44-.17-.52-.12-.08-.38-.12-.79-.12-.55,0-.88.06-.99.18-.11.12-.17.47-.17,1.06,0,.79.05,1.26.15,1.4.1.15.42.21.96.21.44,0,.73-.04.86-.12.13-.08.19-.26.19-.53v-.18"/>
    <path class="w" d="M52.51,44h-.87s0-.07,0-.09c-.03-.23-.08-.38-.18-.44-.1-.06-.32-.09-.68-.09-.42,0-.69.04-.82.1-.13.07-.19.21-.19.43,0,.26.05.41.16.46.11.05.45.1,1.04.12.69.03,1.14.12,1.35.26.2.14.31.44.31.88,0,.55-.12.9-.36,1.06-.24.16-.77.24-1.59.24-.73,0-1.22-.08-1.46-.23-.25-.16-.37-.48-.37-.96v-.15s.86,0,.86,0v.09c0,.29.07.47.17.53.11.07.43.1.94.1.39,0,.65-.04.76-.11.11-.07.16-.25.16-.52,0-.2-.04-.33-.12-.4-.08-.07-.27-.11-.54-.12l-.49-.03c-.74-.04-1.21-.13-1.42-.27-.2-.14-.31-.45-.31-.92s.13-.8.37-.96c.25-.16.74-.24,1.48-.24s1.18.07,1.42.22c.25.15.37.44.37.86v.16"/>
  </g>
</svg>